<svg width="55" height="11" viewBox="0 0 55 11" fill="none" xmlns="http://www.w3.org/2000/svg">
<path d="M4.979 0.730999C6.123 0.730999 7.072 1.02567 7.826 1.615C8.58 2.20433 9.07833 3.006 9.321 4.02H7.397C7.19767 3.526 6.88567 3.136 6.461 2.85C6.045 2.564 5.54233 2.421 4.953 2.421C4.46767 2.421 4.03 2.54233 3.64 2.785C3.25 3.02767 2.94667 3.37433 2.73 3.825C2.51333 4.27567 2.405 4.80433 2.405 5.411C2.405 6.009 2.51333 6.53333 2.73 6.984C2.94667 7.43467 3.25 7.78133 3.64 8.024C4.03 8.26667 4.46767 8.388 4.953 8.388C5.54233 8.388 6.045 8.245 6.461 7.959C6.88567 7.673 7.19767 7.283 7.397 6.789H9.321C9.07833 7.803 8.58 8.60467 7.826 9.194C7.072 9.78333 6.123 10.078 4.979 10.078C4.10367 10.078 3.328 9.883 2.652 9.493C1.98467 9.09433 1.46467 8.53967 1.092 7.829C0.728 7.11833 0.546 6.31233 0.546 5.411C0.546 4.501 0.728 3.69067 1.092 2.98C1.46467 2.26933 1.98467 1.719 2.652 1.329C3.31933 0.930333 4.095 0.730999 4.979 0.730999ZM16.2863 8.154H12.6073L11.9573 10H10.0203L13.4003 0.926H15.4933L18.8603 10H16.9233L16.2863 8.154ZM15.7923 6.763L14.4403 2.889L13.0883 6.763H15.7923ZM27.6236 10H25.7906L21.6826 3.76V10H19.8496V0.822H21.6826L25.7906 7.114V0.822H27.6236V10ZM33.5852 0.692C34.4432 0.692 35.2189 0.891333 35.9122 1.29C36.6142 1.68867 37.1645 2.24767 37.5632 2.967C37.9705 3.67767 38.1742 4.48367 38.1742 5.385C38.1742 6.28633 37.9705 7.09667 37.5632 7.816C37.1645 8.53533 36.6142 9.09433 35.9122 9.493C35.2189 9.89167 34.4432 10.091 33.5852 10.091C32.7272 10.091 31.9472 9.89167 31.2452 9.493C30.5519 9.09433 30.0015 8.53533 29.5942 7.816C29.1955 7.09667 28.9962 6.28633 28.9962 5.385C28.9962 4.48367 29.1955 3.67767 29.5942 2.967C30.0015 2.24767 30.5519 1.68867 31.2452 1.29C31.9472 0.891333 32.7272 0.692 33.5852 0.692ZM33.5852 2.382C33.0479 2.382 32.5755 2.50333 32.1682 2.746C31.7609 2.98867 31.4402 3.33967 31.2062 3.799C30.9809 4.24967 30.8682 4.77833 30.8682 5.385C30.8682 5.99167 30.9809 6.52467 31.2062 6.984C31.4402 7.43467 31.7609 7.78133 32.1682 8.024C32.5755 8.26667 33.0479 8.388 33.5852 8.388C34.1225 8.388 34.5949 8.26667 35.0022 8.024C35.4095 7.78133 35.7259 7.43467 35.9512 6.984C36.1852 6.52467 36.3022 5.99167 36.3022 5.385C36.3022 4.77833 36.1852 4.24967 35.9512 3.799C35.7259 3.33967 35.4095 2.98867 35.0022 2.746C34.5949 2.50333 34.1225 2.382 33.5852 2.382ZM41.3857 6.594V10H39.5527V0.822H42.8937C43.977 0.822 44.7917 1.082 45.3377 1.602C45.8924 2.122 46.1697 2.82833 46.1697 3.721C46.1697 4.59633 45.8837 5.294 45.3117 5.814C44.7484 6.334 43.9424 6.594 42.8937 6.594H41.3857ZM42.6987 5.125C43.7734 5.125 44.3107 4.657 44.3107 3.721C44.3107 3.26167 44.185 2.91067 43.9337 2.668C43.6824 2.42533 43.2707 2.304 42.6987 2.304H41.3857V5.125H42.6987ZM54.7573 0.822L51.6503 6.789V10H49.8043V6.789L46.6843 0.822H48.7903L50.7403 4.839L52.6903 0.822H54.7573Z" fill="#344563"/>
</svg>
